HIERARCHY
ROOT Hips
{
	OFFSET -322.846497 91.085190 447.741394
	CHANNELS 6 Xposition Yposition Zposition Zrotation Yrotation Xrotation 
	JOINT LeftUpLeg
	{
		OFFSET 0.103462 1.857844 10.548508
		CHANNELS 3 Zrotation Yrotation Xrotation
		JOINT LeftLeg
		{
			OFFSET 43.500000 -0.000046 -0.000008
			CHANNELS 3 Zrotation Yrotation Xrotation
			JOINT LeftFoot
			{
				OFFSET 42.372192 0.000000 0.000004
				CHANNELS 3 Zrotation Yrotation Xrotation
				JOINT LeftToe
				{
					OFFSET 17.299997 -0.000003 0.000018
					CHANNELS 3 Zrotation Yrotation Xrotation
					End Site
					{
						OFFSET 0.000000 0.000000 0.000000
					}
				}
			}
		}
	}
	JOINT RightUpLeg
	{
		OFFSET 0.103459 1.857830 -10.548515
		CHANNELS 3 Zrotation Yrotation Xrotation
		JOINT RightLeg
		{
			OFFSET 43.500046 -0.000034 -0.000006
			CHANNELS 3 Zrotation Yrotation Xrotation
			JOINT RightFoot
			{
				OFFSET 42.372253 0.000015 -0.000006
				CHANNELS 3 Zrotation Yrotation Xrotation
				JOINT RightToe
				{
					OFFSET 17.299969 -0.000012 0.000010
					CHANNELS 3 Zrotation Yrotation Xrotation
					End Site
					{
						OFFSET 0.000000 0.000000 0.000000
					}
				}
			}
		}
	}
	JOINT Spine
	{
		OFFSET 6.901964 -2.603727 0.000001
		CHANNELS 3 Zrotation Yrotation Xrotation
		JOINT Spine1
		{
			OFFSET 12.588105 -0.000009 0.000006
			CHANNELS 3 Zrotation Yrotation Xrotation
			JOINT Spine2
			{
				OFFSET 12.343197 0.000007 -0.000002
				CHANNELS 3 Zrotation Yrotation Xrotation
				JOINT Neck
				{
					OFFSET 25.832897 0.000002 -0.000001
					CHANNELS 3 Zrotation Yrotation Xrotation
					JOINT Head
					{
						OFFSET 11.766611 0.000000 0.000004
						CHANNELS 3 Zrotation Yrotation Xrotation
						End Site
						{
							OFFSET 0.000000 0.000000 0.000000
						}
					}
				}
				JOINT LeftShoulder
				{
					OFFSET 19.745911 -1.480377 6.000110
					CHANNELS 3 Zrotation Yrotation Xrotation
					JOINT LeftArm
					{
						OFFSET 11.284108 -0.000006 -0.000027
						CHANNELS 3 Zrotation Yrotation Xrotation
						JOINT LeftForeArm
						{
							OFFSET 33.000046 -0.000010 0.000031
							CHANNELS 3 Zrotation Yrotation Xrotation
							JOINT LeftHand
							{
								OFFSET 25.200014 0.000009 0.000001
								CHANNELS 3 Zrotation Yrotation Xrotation
								End Site
								{
									OFFSET 0.000000 0.000000 0.000000
								}
							}
						}
					}
				}
				JOINT RightShoulder
				{
					OFFSET 19.746105 -1.480358 -6.000092
					CHANNELS 3 Zrotation Yrotation Xrotation
					JOINT RightArm
					{
						OFFSET 11.284138 -0.000011 -0.000001
						CHANNELS 3 Zrotation Yrotation Xrotation
						JOINT RightForeArm
						{
							OFFSET 33.000088 0.000023 -0.000007
							CHANNELS 3 Zrotation Yrotation Xrotation
							JOINT RightHand
							{
								OFFSET 25.199776 0.000128 0.000427
								CHANNELS 3 Zrotation Yrotation Xrotation
								End Site
								{
									OFFSET 0.000000 0.000000 0.000000
								}
							}
						}
					}
				}
			}
		}
	}
}
MOTION
Frames: 15
Frame Time: 0.033333
-322.846497 91.085190 447.741394 88.431900 -2.471940 100.252799 157.253617 -8.141395 165.852416 -35.496558 1.723014 -8.421742 81.310096 4.504914 -5.772187 21.454548 0.003079 -0.000000 168.343345 -7.283489 -169.126644 -25.604047 -3.627840 9.047878 91.824285 -6.054520 0.174063 21.454555 -0.003102 -0.000015 6.107088 0.568879 -0.038111 2.201088 1.138339 -0.065921 1.882932 1.138039 -0.072627 13.185117 12.523171 6.002507 -30.559462 -7.484274 11.574376 -75.019656 -83.579597 -107.344605 3.860860 17.641095 -22.584005 -56.264100 -24.144657 2.595397 4.135516 -12.939029 20.299857 -118.221067 84.197613 63.873416 12.668304 -21.091061 24.732185 -53.864549 18.041035 -2.129635 2.623222 15.311519 -11.487788 
-322.854492 91.084267 447.717804 88.491487 -2.479246 100.258496 157.253276 -8.093203 165.805110 -35.470781 1.723014 -8.401552 81.243126 4.482267 -5.795670 21.454550 0.003083 0.000001 168.288648 -7.221095 -169.049245 -25.688724 -3.664086 9.013832 91.851517 -6.029960 0.174057 21.454555 -0.003118 -0.000019 6.110767 0.555193 -0.038102 2.208459 1.110935 -0.065919 1.890303 1.110661 -0.072622 13.159445 12.557114 6.002499 -30.566210 -7.492513 11.585502 -74.601143 -83.649641 -107.756930 3.964693 17.655445 -22.601707 -56.294245 -24.134419 2.595407 4.128208 -12.922637 20.372433 -118.370006 84.238021 63.720706 12.718277 -21.108387 24.743617 -53.888243 18.053174 -2.129644 2.576339 15.325348 -11.498183 
-322.898804 91.091347 447.617188 88.649811 -2.502506 100.337200 157.212663 -7.964604 165.702138 -35.380742 1.723016 -8.321016 80.967644 4.395111 -5.874397 21.454553 0.003079 -0.000002 168.130939 -7.052310 -168.931096 -25.884868 -3.691931 9.005639 91.880490 -6.024451 0.170601 21.454558 -0.003109 -0.000016 6.124448 0.520023 -0.041815 2.235811 1.040686 -0.073861 1.917657 1.040356 -0.080147 13.065256 12.708451 5.996427 -30.594251 -7.518320 11.621240 -73.230461 -83.804987 -109.114253 4.145704 17.677569 -22.621225 -56.302424 -24.127802 2.595398 4.043167 -12.921739 20.510845 -119.212018 84.338841 62.866612 12.846713 -21.111100 24.790974 -53.973753 18.097684 -2.129633 2.428477 15.338400 -11.570448 
-322.966797 91.102470 447.497314 88.716337 -2.524532 100.474296 157.126043 -7.911405 165.675363 -35.289156 1.716191 -8.236863 80.746073 4.331484 -5.853314 21.454550 0.003082 -0.000003 168.007272 -6.993192 -168.863081 -25.945578 -3.688338 9.059325 91.833710 -6.063603 0.153615 21.454555 -0.003112 -0.000018 6.135239 0.506897 -0.051441 2.257315 1.014620 -0.093274 1.939164 1.014174 -0.099387 13.015514 12.797935 5.982548 -30.648131 -7.497733 11.616589 -72.533815 -83.842983 -109.807893 4.178100 17.642331 -22.635576 -56.383218 -24.047943 2.595395 3.955828 -13.060844 20.480251 -120.054098 84.427258 62.013466 12.945059 -21.063520 24.811675 -54.040918 18.134388 -2.129649 2.361277 15.316363 -11.592155 
-323.057007 91.109627 447.363495 88.744306 -2.548961 100.643001 156.996420 -7.899790 165.681907 -35.223859 1.705599 -8.144279 80.539057 4.269929 -5.804234 21.454555 0.003096 0.000000 167.885353 -6.996094 -168.757022 -25.948343 -3.716689 9.114951 91.768844 -6.103282 0.138432 21.454557 -0.003105 -0.000017 6.142241 0.510458 -0.062149 2.271201 1.021948 -0.114537 1.953049 1.021383 -0.120708 13.029756 12.651495 5.969139 -30.735783 -7.342965 11.515484 -73.007632 -83.787413 -109.338952 4.058917 17.548998 -22.579093 -56.471567 -23.998109 2.595388 3.884132 -13.174632 20.371164 -119.925500 84.571621 62.132592 13.063651 -21.057811 24.878264 -54.111945 18.080380 -2.129638 2.355327 15.292257 -11.652018 
-323.169006 91.113777 447.220490 88.744696 -2.564185 100.841302 156.846743 -7.919595 165.715552 -35.173435 1.696507 -8.042759 80.340708 4.206857 -5.740235 21.454553 0.003093 0.000001 167.787299 -7.021800 -168.725084 -25.894429 -3.670644 9.214105 91.703493 -6.177083 0.097769 21.454558 -0.003105 -0.000017 6.150131 0.526505 -0.073294 2.286876 1.054262 -0.136470 1.968724 1.053562 -0.142828 13.069247 12.377758 5.966492 -30.816188 -7.125742 11.376915 -73.943566 -83.722335 -108.408182 3.907092 17.468072 -22.554251 -56.525778 -23.985785 2.595398 3.779295 -13.115113 20.327265 -119.375424 84.718620 62.675605 13.159532 -21.060400 24.943439 -54.203903 18.040999 -2.129646 2.391535 15.273729 -11.730369 
-323.301300 91.117012 447.071014 88.720134 -2.569702 101.063010 156.695208 -7.970003 165.768978 -35.114084 1.681210 -7.930925 80.158670 4.142389 -5.658063 21.454551 0.003087 0.000000 167.714257 -7.068296 -168.736750 -25.787027 -3.565767 9.340153 91.629433 -6.273780 0.029821 21.454560 -0.003112 -0.000018 6.158346 0.549265 -0.081096 2.303215 1.099938 -0.151555 1.985046 1.099144 -0.158189 13.154081 12.138065 5.991412 -30.893857 -6.957612 11.291382 -74.626695 -83.709105 -107.725320 3.811556 17.421000 -22.540427 -56.571551 -23.999241 2.595414 3.724306 -13.041081 20.409194 -118.562481 84.790378 63.487988 13.146309 -21.079576 25.078197 -54.355615 18.012452 -2.129650 2.387874 15.327371 -11.902820 
-323.453094 91.116547 446.913300 88.667084 -2.566925 101.287197 156.546338 -8.074491 165.827663 -35.048723 1.634081 -7.804826 80.014293 4.077006 -5.547377 21.454550 0.003091 -0.000001 167.659492 -7.147994 -168.653258 -25.634258 -3.476604 9.420316 91.548283 -6.344087 -0.074521 21.454557 -0.003113 -0.000018 6.165174 0.577786 -0.079226 2.316878 1.156951 -0.147192 1.998708 1.156170 -0.154175 13.272125 12.045351 6.030178 -30.926099 -6.944394 11.307439 -74.845541 -83.743262 -107.502588 3.745572 17.411124 -22.528532 -56.593223 -24.036238 2.595399 3.745533 -12.997730 20.554944 -118.188036 84.912919 63.855732 13.241070 -21.098579 25.177445 -54.532148 17.987636 -2.134205 2.361021 15.390993 -12.090539 
-323.613007 91.114647 446.752197 88.592642 -2.548574 101.491202 156.430525 -8.220200 165.866377 -34.954173 1.567908 -7.668436 79.919989 4.012348 -5.414079 21.454553 0.003091 0.000002 167.634221 -7.269106 -168.544302 -25.431617 -3.414247 9.480562 91.448119 -6.401872 -0.187993 21.454558 -0.003108 -0.000018 6.170747 0.612202 -0.068253 2.328106 1.225564 -0.124502 2.009933 1.224939 -0.131914 13.387433 11.988348 6.046299 -30.864720 -6.959803 11.308981 -74.932236 -83.777577 -107.412463 3.664282 17.421806 -22.483045 -56.574139 -24.107824 2.595392 3.846112 -13.027561 20.594028 -117.789563 85.021648 64.248461 13.308858 -21.108520 25.230082 -54.682607 18.000636 -2.140406 2.309061 15.404691 -12.117778 
-323.765900 91.125076 446.596588 88.477956 -2.520018 101.692999 156.368370 -8.385896 165.883916 -34.773808 1.518823 -7.518781 79.876740 3.944505 -5.264256 21.454551 0.003083 0.000000 167.688630 -7.434217 -168.479716 -25.080670 -3.323948 9.555938 91.283716 -6.473258 -0.317620 21.454558 -0.003109 -0.000016 6.172209 0.655311 -0.054450 2.331187 1.311489 -0.096054 2.012990 1.311026 -0.103967 13.509833 12.013807 6.076030 -30.778263 -7.014980 11.350846 -74.837891 -83.795875 -107.505163 3.615421 17.473301 -22.515956 -56.593855 -24.108454 2.595395 3.979188 -13.091158 20.606247 -117.272873 85.037419 64.766579 13.257027 -21.100182 25.267235 -54.792385 18.033009 -2.146483 2.331348 15.493557 -12.167277 
-323.902802 91.141129 446.454712 88.337125 -2.485999 101.805199 156.420307 -8.584593 165.809918 -34.458444 1.465761 -7.370982 79.963627 3.889264 -5.089784 21.454553 0.003089 0.000000 167.799498 -7.639303 -168.607509 -24.644362 -3.179053 9.681509 91.077868 -6.582197 -0.459616 21.454558 -0.003108 -0.000018 6.168788 0.701526 -0.025217 2.324678 1.403351 -0.036704 2.006485 1.403228 -0.045171 13.608443 12.106285 6.114078 -30.699019 -7.099142 11.426120 -74.677907 -83.767564 -107.668158 3.608400 17.564460 -22.629117 -56.623962 -24.046417 2.595392 3.987278 -13.081722 20.628790 -116.786877 85.017557 65.256522 13.173627 -21.090122 25.301913 -54.880256 18.050563 -2.150790 2.319423 15.514981 -12.212998 
-324.021210 91.149673 446.322388 88.214871 -2.460916 101.827397 156.531297 -8.770011 165.632128 -34.093938 1.437731 -7.228772 80.146430 3.836486 -4.934333 21.454553 0.003095 -0.000001 167.887129 -7.831199 -168.814341 -24.267952 -3.042335 9.804448 90.898439 -6.688291 -0.593576 21.454557 -0.003116 -0.000018 6.159266 0.740382 0.012439 2.306138 1.480313 0.039240 1.987920 1.480670 0.030302 13.673607 12.197198 6.162020 -30.653606 -7.154104 11.503607 -74.886269 -83.650686 -107.471271 3.558433 17.639372 -22.770449 -56.623429 -23.981071 2.595394 3.917663 -13.018198 20.647426 -116.450996 84.994649 65.595702 13.077370 -21.060791 25.292194 -54.907717 18.079722 -2.152337 2.287955 15.463962 -12.243419 
-324.122894 91.156242 446.196411 88.124282 -2.447607 101.815601 156.634023 -8.907389 165.475690 -33.758032 1.422791 -7.128474 80.316358 3.797683 -4.837836 21.454553 0.003106 0.000001 167.949830 -7.999301 -168.845500 -23.939844 -3.022140 9.822908 90.741542 -6.719381 -0.707529 21.454562 -0.003100 -0.000015 6.140563 0.773417 0.046964 2.269229 1.545732 0.108692 1.951004 1.546506 0.099346 13.782562 12.209867 6.224530 -30.687763 -7.090903 11.532355 -74.901248 -83.675999 -107.453629 3.724828 17.701506 -22.842934 -56.640245 -23.957730 2.596017 3.932229 -12.924888 20.577111 -116.480024 85.020986 65.564523 13.030683 -21.012240 25.253144 -54.867179 18.118825 -2.152775 2.198979 15.392274 -12.257288 
-324.209595 91.181458 446.076996 88.090063 -2.446974 101.788998 156.713445 -8.978603 165.385422 -33.463204 1.394104 -7.080428 80.327792 3.774840 -4.802223 21.454550 0.003091 -0.000002 168.033281 -8.119001 -168.824723 -23.577127 -3.056685 9.799476 90.562837 -6.720319 -0.805606 21.454558 -0.003116 -0.000018 6.118154 0.789936 0.074248 2.224805 1.578290 0.163255 1.906569 1.579387 0.153722 13.824601 12.373402 6.289274 -30.686237 -7.041357 11.589038 -74.535020 -83.672222 -107.820779 3.869610 17.785597 -22.855273 -56.621599 -23.972417 2.596446 4.030078 -12.957772 20.364008 -117.623412 85.017523 64.415582 12.988092 -20.947852 25.347274 -54.818969 18.111257 -2.152149 2.118397 15.428817 -12.393828 
-324.282806 91.223091 445.963104 88.114167 -2.455628 101.756602 156.782006 -8.980893 165.406527 -33.188658 1.320066 -7.104928 80.187937 3.788815 -4.804752 21.454553 0.003091 -0.000001 168.122251 -8.175196 -168.845910 -23.213325 -3.089505 9.781114 90.375110 -6.722835 -0.882202 21.454560 -0.003104 -0.000019 6.093460 0.798739 0.090377 2.175643 1.595659 0.195342 1.857398 1.596946 0.185697 13.810307 12.489896 6.315499 -30.664558 -6.976006 11.595454 -74.461903 -83.659190 -107.895385 3.985850 17.841113 -22.790591 -56.517940 -24.027081 2.596851 4.008484 -12.993147 20.045318 -118.251379 85.067991 63.780949 13.000311 -20.983024 25.402640 -54.778749 18.101019 -2.150599 2.073802 15.486930 -12.592346 
